<mxfile host="app.diagrams.net" modified="2024-03-27T06:24:47.167Z" agent="Mozilla/5.0 (Macintosh; Intel Mac OS X 10_15_7) AppleWebKit/537.36 (KHTML, like Gecko) Chrome/123.0.0.0 Safari/537.36" etag="J6aKRyJjOoigr9Dn8JCQ" version="24.2.0" type="github">
  <diagram name="第 1 页" id="bD0ZjHLVfbpInLHWtYOu">
    <mxGraphModel dx="707" dy="403" grid="1" gridSize="10" guides="1" tooltips="1" connect="1" arrows="1" fold="1" page="1" pageScale="1" pageWidth="827" pageHeight="1169" math="0" shadow="0">
      <root>
        <mxCell id="0" />
        <mxCell id="1" parent="0" />
        <mxCell id="DEMM_gKEzrEi_v6ik8aX-4" value="LLM" style="rounded=1;whiteSpace=wrap;html=1;fillColor=#ffe6cc;strokeColor=#d79b00;" vertex="1" parent="1">
          <mxGeometry x="320" y="600" width="320" height="50" as="geometry" />
        </mxCell>
        <mxCell id="DEMM_gKEzrEi_v6ik8aX-9" value="Biden is a boy" style="text;html=1;align=center;verticalAlign=middle;resizable=0;points=[];autosize=1;strokeColor=none;fillColor=none;" vertex="1" parent="1">
          <mxGeometry x="400" y="740" width="100" height="30" as="geometry" />
        </mxCell>
        <mxCell id="DEMM_gKEzrEi_v6ik8aX-12" value="&amp;lt;bos&amp;gt;" style="rounded=1;whiteSpace=wrap;html=1;" vertex="1" parent="1">
          <mxGeometry x="320" y="680" width="35" height="20" as="geometry" />
        </mxCell>
        <mxCell id="DEMM_gKEzrEi_v6ik8aX-13" value="5" style="rounded=1;whiteSpace=wrap;html=1;" vertex="1" parent="1">
          <mxGeometry x="365" y="680" width="35" height="20" as="geometry" />
        </mxCell>
        <mxCell id="DEMM_gKEzrEi_v6ik8aX-14" value="6" style="rounded=1;whiteSpace=wrap;html=1;" vertex="1" parent="1">
          <mxGeometry x="410" y="680" width="35" height="20" as="geometry" />
        </mxCell>
        <mxCell id="DEMM_gKEzrEi_v6ik8aX-15" value="8" style="rounded=1;whiteSpace=wrap;html=1;" vertex="1" parent="1">
          <mxGeometry x="455" y="680" width="35" height="20" as="geometry" />
        </mxCell>
        <mxCell id="DEMM_gKEzrEi_v6ik8aX-16" value="&amp;lt;eos&amp;gt;" style="rounded=1;whiteSpace=wrap;html=1;" vertex="1" parent="1">
          <mxGeometry x="545" y="680" width="35" height="20" as="geometry" />
        </mxCell>
        <mxCell id="DEMM_gKEzrEi_v6ik8aX-17" value="10" style="rounded=1;whiteSpace=wrap;html=1;" vertex="1" parent="1">
          <mxGeometry x="500" y="680" width="35" height="20" as="geometry" />
        </mxCell>
        <mxCell id="DEMM_gKEzrEi_v6ik8aX-18" value="" style="endArrow=classic;html=1;rounded=0;" edge="1" parent="1">
          <mxGeometry width="50" height="50" relative="1" as="geometry">
            <mxPoint x="445.37" y="740" as="sourcePoint" />
            <mxPoint x="445" y="710" as="targetPoint" />
            <Array as="points">
              <mxPoint x="445" y="730" />
            </Array>
          </mxGeometry>
        </mxCell>
        <mxCell id="DEMM_gKEzrEi_v6ik8aX-20" value="5" style="rounded=1;whiteSpace=wrap;html=1;" vertex="1" parent="1">
          <mxGeometry x="320" y="556" width="35" height="20" as="geometry" />
        </mxCell>
        <mxCell id="DEMM_gKEzrEi_v6ik8aX-21" value="6" style="rounded=1;whiteSpace=wrap;html=1;" vertex="1" parent="1">
          <mxGeometry x="365" y="556" width="35" height="20" as="geometry" />
        </mxCell>
        <mxCell id="DEMM_gKEzrEi_v6ik8aX-22" value="8" style="rounded=1;whiteSpace=wrap;html=1;" vertex="1" parent="1">
          <mxGeometry x="410" y="556" width="35" height="20" as="geometry" />
        </mxCell>
        <mxCell id="DEMM_gKEzrEi_v6ik8aX-23" value="&amp;lt;eos&amp;gt;" style="rounded=1;whiteSpace=wrap;html=1;" vertex="1" parent="1">
          <mxGeometry x="500" y="556" width="35" height="20" as="geometry" />
        </mxCell>
        <mxCell id="DEMM_gKEzrEi_v6ik8aX-24" value="10" style="rounded=1;whiteSpace=wrap;html=1;" vertex="1" parent="1">
          <mxGeometry x="455" y="556" width="35" height="20" as="geometry" />
        </mxCell>
        <mxCell id="DEMM_gKEzrEi_v6ik8aX-25" value="标签转移1位" style="text;html=1;align=center;verticalAlign=middle;resizable=0;points=[];autosize=1;strokeColor=none;fillColor=none;" vertex="1" parent="1">
          <mxGeometry x="320" y="500" width="90" height="30" as="geometry" />
        </mxCell>
        <mxCell id="DEMM_gKEzrEi_v6ik8aX-26" value="" style="endArrow=classic;html=1;rounded=0;" edge="1" parent="1">
          <mxGeometry width="50" height="50" relative="1" as="geometry">
            <mxPoint x="337.5" y="680" as="sourcePoint" />
            <mxPoint x="337.13" y="650" as="targetPoint" />
            <Array as="points">
              <mxPoint x="337.13" y="670" />
            </Array>
          </mxGeometry>
        </mxCell>
        <mxCell id="DEMM_gKEzrEi_v6ik8aX-27" value="" style="endArrow=classic;html=1;rounded=0;" edge="1" parent="1">
          <mxGeometry width="50" height="50" relative="1" as="geometry">
            <mxPoint x="382.5" y="680" as="sourcePoint" />
            <mxPoint x="382.13" y="650" as="targetPoint" />
          </mxGeometry>
        </mxCell>
        <mxCell id="DEMM_gKEzrEi_v6ik8aX-28" value="" style="endArrow=classic;html=1;rounded=0;" edge="1" parent="1">
          <mxGeometry width="50" height="50" relative="1" as="geometry">
            <mxPoint x="427.5" y="680" as="sourcePoint" />
            <mxPoint x="427.13" y="650" as="targetPoint" />
          </mxGeometry>
        </mxCell>
        <mxCell id="DEMM_gKEzrEi_v6ik8aX-30" value="" style="endArrow=classic;html=1;rounded=0;" edge="1" parent="1">
          <mxGeometry width="50" height="50" relative="1" as="geometry">
            <mxPoint x="472.5" y="680" as="sourcePoint" />
            <mxPoint x="472.13" y="650" as="targetPoint" />
          </mxGeometry>
        </mxCell>
        <mxCell id="DEMM_gKEzrEi_v6ik8aX-31" value="" style="endArrow=classic;html=1;rounded=0;" edge="1" parent="1">
          <mxGeometry width="50" height="50" relative="1" as="geometry">
            <mxPoint x="517.5" y="680" as="sourcePoint" />
            <mxPoint x="517.13" y="650" as="targetPoint" />
          </mxGeometry>
        </mxCell>
        <mxCell id="DEMM_gKEzrEi_v6ik8aX-32" value="" style="endArrow=classic;html=1;rounded=0;" edge="1" parent="1">
          <mxGeometry width="50" height="50" relative="1" as="geometry">
            <mxPoint x="562.5" y="680" as="sourcePoint" />
            <mxPoint x="562.13" y="650" as="targetPoint" />
          </mxGeometry>
        </mxCell>
        <mxCell id="DEMM_gKEzrEi_v6ik8aX-33" value="" style="endArrow=none;dashed=1;html=1;rounded=0;" edge="1" parent="1">
          <mxGeometry width="50" height="50" relative="1" as="geometry">
            <mxPoint x="250" y="634" as="sourcePoint" />
            <mxPoint x="300" y="584" as="targetPoint" />
          </mxGeometry>
        </mxCell>
      </root>
    </mxGraphModel>
  </diagram>
</mxfile>
